<?xml version="1.0" encoding="UTF-8"?>
<svg width="313px" height="172px" viewBox="0 0 313 172" version="1.1" xmlns="http://www.w3.org/2000/svg" xmlns:xlink="http://www.w3.org/1999/xlink">
    <title>Group 6 Copy 4</title>
    <g id="Real" stroke="none" stroke-width="1" fill="none" fill-rule="evenodd">
        <g id="Landing_Light" transform="translate(-564.000000, -679.000000)">
            <g id="Group-6-Copy-4" transform="translate(566.000000, 681.000000)">
                <path d="M237.113325,44.6947723 L249.77709,44.6947723 C252.76136,44.6947723 255.180589,47.1107737 255.180589,50.0910624 L255.180589,158.016863 L255.180589,158.016863 L53.9002714,158.016863 L53.9002714,50.0910624 C53.9002714,47.1107737 56.3195001,44.6947723 59.3037698,44.6947723 L70.5053114,44.6947723 L70.5053114,44.6947723" id="Path" stroke="#00CD9E" stroke-width="2.16"></path>
                <path d="M59.3037698,50.0910624 L70.6549086,50.0910624 L70.6549086,118.77308 C70.6549086,123.693937 74.6440515,127.68308 79.5649086,127.68308 L228.212865,127.68308 C233.133722,127.68308 237.122865,123.693937 237.122865,118.77308 L237.122865,50.0910624 L237.122865,50.0910624 L249.77709,50.0910624 L249.77709,152.620573 L59.3037698,152.620573 L59.3037698,50.0910624 Z" id="Rectangle-Copy-23" fill-opacity="0.181463068" fill="#00CD9E"></path>
                <g id="Group-7" transform="translate(264.501249, 43.986588)">
                    <path d="M0.743014308,91.0934738 C16.7478162,86.692917 28.5038287,72.0530511 28.5038287,54.6710844 C28.5038287,37.7565044 17.3715354,23.4385423 2.02472032,18.6257412 C1.54560638,18.4754898 1.06238483,18.3345025 0.575266155,18.2029894" id="Path" stroke="#00CD9E" stroke-width="2.16" stroke-linecap="round" stroke-linejoin="round"></path>
                    <path d="M1.86352982,0 L16.4225132,5.43359379 L15.2222428,15.2416504 C18.1490864,17.4132223 20.2796531,19.1196666 21.6139428,20.3609833 C22.9482324,21.6023 24.6923211,23.5005261 26.8462088,26.0556615 L36.6090764,23.9102116 L43.2936762,38.1443082 L35.6768837,44.6879478 C36.1787315,47.4823146 36.4894623,49.8601491 36.6090764,51.8214514 C36.7286904,53.7827536 36.7286904,56.4999503 36.6090764,59.9730415 L44.4987509,65.19385 L39.0198649,80.3344247 L29.5710387,78.9938184 C27.2241555,82.6205248 25.3966591,85.1030254 24.0885495,86.4413203 C22.78044,87.7796152 21.0826592,89.1488755 18.9952074,90.5491012 L20.7547766,99.9781257 L5.91033867,106.983823 L0.540349845,99.3615987" id="Path-3" stroke="#00CD9E" stroke-width="2.16" stroke-linecap="round" stroke-linejoin="round"></path>
                    <path d="M0.967160528,84.0437834 C1.81529948,83.7580731 2.64739733,83.4375528 3.46175021,83.083924 M7.73703895,80.8245807 C9.98788927,79.4055964 12.0477456,77.7119078 13.8693947,75.7906649 M19.8497565,66.8337455 C21.5920387,62.9093483 22.5599804,58.5658349 22.5599804,53.9965481 C22.5599804,39.9626613 13.4291913,28.0585397 0.776759878,23.8858472" id="Shape" stroke="#00CD9E" stroke-width="2.16" stroke-linecap="round" stroke-linejoin="round"></path>
                    <path d="M17.2043392,28.9002467 C7.14468094,32.7381671 0,42.4666522 0,53.8616409 C0,65.3362376 7.24485853,75.1209643 17.4156021,78.902609" id="Path" fill-opacity="0.181463068" fill="#00CD9E" transform="translate(8.707801, 53.901428) scale(-1, 1) translate(-8.707801, -53.901428) "></path>
                </g>
                <g id="Group-5" transform="translate(22.351635, 97.478500) scale(-1, 1) translate(-22.351635, -97.478500) translate(0.000000, 43.986588)">
                    <path d="M0.947532695,91.0934738 C16.9523346,86.692917 28.7083471,72.0530511 28.7083471,54.6710844 C28.7083471,37.7565044 17.5760537,23.4385423 2.22923871,18.6257412 C1.75012477,18.4754898 1.26690322,18.3345025 0.779784542,18.2029894" id="Path-Copy-4" stroke="#00CD9E" stroke-width="2.16" stroke-linecap="round" stroke-linejoin="round"></path>
                    <path d="M2.06804821,0 L16.6270316,5.43359379 L15.4267612,15.2416504 C18.3536048,17.4132223 20.4841715,19.1196666 21.8184611,20.3609833 C23.1527508,21.6023 24.8968395,23.5005261 27.0507271,26.0556615 L36.8135947,23.9102116 L43.4981946,38.1443082 L35.8814021,44.6879478 C36.3832499,47.4823146 36.6939807,49.8601491 36.8135947,51.8214514 C36.9332088,53.7827536 36.9332088,56.4999503 36.8135947,59.9730415 L44.7032692,65.19385 L39.2243833,80.3344247 L29.7755571,78.9938184 C27.4286739,82.6205248 25.6011775,85.1030254 24.2930679,86.4413203 C22.9849583,87.7796152 21.2871776,89.1488755 19.1997258,90.5491012 L20.959295,99.9781257 L6.11485705,106.983823 L0.744868232,99.3615987" id="Path-3-Copy" stroke="#00CD9E" stroke-width="2.16" stroke-linecap="round" stroke-linejoin="round"></path>
                    <path d="M1.17167892,84.0437834 C2.01981787,83.7580731 2.85191572,83.4375528 3.66626859,83.083924 M7.94155734,80.8245807 C10.1924077,79.4055964 12.252264,77.7119078 14.0739131,75.7906649 M20.0542749,66.8337455 C21.7965571,62.9093483 22.7644988,58.5658349 22.7644988,53.9965481 C22.7644988,39.9626613 13.6337096,28.0585397 0.981278265,23.8858472" id="Shape-Copy-2" stroke="#00CD9E" stroke-width="2.16" stroke-linecap="round" stroke-linejoin="round"></path>
                    <path d="M17.2043392,28.9002467 C7.14468094,32.7381671 0,42.4666522 0,53.8616409 C0,65.3362376 7.24485853,75.1209643 17.4156021,78.902609" id="Path" fill-opacity="0.181463068" fill="#00CD9E" transform="translate(8.707801, 53.901428) scale(-1, 1) translate(-8.707801, -53.901428) "></path>
                </g>
                <path d="M226.81572,0 C229.798058,-5.47846538e-16 232.21572,2.41766235 232.21572,5.4 L232.21572,19.9662732 L75.5142652,19.9662732 L75.5142652,5.4 C75.5142652,2.41766235 77.9319276,5.47846538e-16 80.9142652,0 L226.81572,0 Z M86.3212621,6.47554806 C84.5307002,6.47554806 83.079163,7.92514887 83.079163,9.71332209 C83.079163,11.5014953 84.5307002,12.9510961 86.3212621,12.9510961 C88.111824,12.9510961 89.5633612,11.5014953 89.5633612,9.71332209 C89.5633612,7.92514887 88.111824,6.47554806 86.3212621,6.47554806 Z M95.5072095,6.47554806 C93.7166476,6.47554806 92.2651104,7.92514887 92.2651104,9.71332209 C92.2651104,11.5014953 93.7166476,12.9510961 95.5072095,12.9510961 C97.2977713,12.9510961 98.7493085,11.5014953 98.7493085,9.71332209 C98.7493085,7.92514887 97.2977713,6.47554806 95.5072095,6.47554806 Z M104.693157,6.47554806 C102.902595,6.47554806 101.451058,7.92514887 101.451058,9.71332209 C101.451058,11.5014953 102.902595,12.9510961 104.693157,12.9510961 C106.483719,12.9510961 107.935256,11.5014953 107.935256,9.71332209 C107.935256,7.92514887 106.483719,6.47554806 104.693157,6.47554806 Z" id="Combined-Shape" fill="#00CD9E"></path>
                <rect id="Rectangle" stroke="#00CD9E" stroke-width="2.16" x="75.5142652" y="0" width="156.701455" height="122.495784" rx="5.4"></rect>
                <path d="M231.135021,19.6964587 L231.135021,119.256341 C231.135021,120.598393 230.047073,121.686341 228.705021,121.686341 L78.75479,121.686341 C77.412738,121.686341 76.32479,120.598393 76.32479,119.256341 L76.32479,19.6964587 L231.135021,19.6964587 Z M227.082397,23.7436762 L80.3774138,23.7436762 L80.3774138,117.639123 L227.082397,117.639123 L227.082397,23.7436762 Z" id="Combined-Shape" fill-opacity="0.181463068" fill="#00CD9E"></path>
                <path d="M148.597369,103.878583 C149.268395,103.878583 149.812369,104.422558 149.812369,105.093583 L149.812369,105.361728 C149.812369,106.032754 149.268395,106.576728 148.597369,106.576728 L119.957253,106.576728 C119.286227,106.576728 118.742253,106.032754 118.742253,105.361728 L118.742253,105.093583 C118.742253,104.422558 119.286227,103.878583 119.957253,103.878583 L148.597369,103.878583 Z M212.088476,103.878583 C212.759502,103.878583 213.303476,104.422558 213.303476,105.093583 L213.303476,105.361728 C213.303476,106.032754 212.759502,106.576728 212.088476,106.576728 L161.834366,106.576728 C161.16334,106.576728 160.619366,106.032754 160.619366,105.361728 L160.619366,105.093583 C160.619366,104.422558 161.16334,103.878583 161.834366,103.878583 L212.088476,103.878583 Z M106.720256,92.2765599 C107.391282,92.2765599 107.935256,92.8205339 107.935256,93.4915599 L107.935256,93.7597049 C107.935256,94.4307309 107.391282,94.9747049 106.720256,94.9747049 L88.6169618,94.9747049 C87.9459358,94.9747049 87.4019618,94.4307309 87.4019618,93.7597049 L87.4019618,93.4915599 C87.4019618,92.8205339 87.9459358,92.2765599 88.6169618,92.2765599 L106.720256,92.2765599 Z M148.597369,92.2765599 C149.268395,92.2765599 149.812369,92.8205339 149.812369,93.4915599 L149.812369,93.7597049 C149.812369,94.4307309 149.268395,94.9747049 148.597369,94.9747049 L119.957253,94.9747049 C119.286227,94.9747049 118.742253,94.4307309 118.742253,93.7597049 L118.742253,93.4915599 C118.742253,92.8205339 119.286227,92.2765599 119.957253,92.2765599 L148.597369,92.2765599 Z M212.088476,92.2765599 C212.759502,92.2765599 213.303476,92.8205339 213.303476,93.4915599 L213.303476,93.7597049 C213.303476,94.4307309 212.759502,94.9747049 212.088476,94.9747049 L161.834366,94.9747049 C161.16334,94.9747049 160.619366,94.4307309 160.619366,93.7597049 L160.619366,93.4915599 C160.619366,92.8205339 161.16334,92.2765599 161.834366,92.2765599 L212.088476,92.2765599 Z M106.720256,80.6745363 C107.391282,80.6745363 107.935256,81.2185103 107.935256,81.8895363 L107.935256,82.1576813 C107.935256,82.8287073 107.391282,83.3726813 106.720256,83.3726813 L88.6169618,83.3726813 C87.9459358,83.3726813 87.4019618,82.8287073 87.4019618,82.1576813 L87.4019618,81.8895363 C87.4019618,81.2185103 87.9459358,80.6745363 88.6169618,80.6745363 L106.720256,80.6745363 Z M186.421858,80.6745363 C187.092884,80.6745363 187.636858,81.2185103 187.636858,81.8895363 L187.636858,82.1576813 C187.636858,82.8287073 187.092884,83.3726813 186.421858,83.3726813 L119.957253,83.3726813 C119.286227,83.3726813 118.742253,82.8287073 118.742253,82.1576813 L118.742253,81.8895363 C118.742253,81.2185103 119.286227,80.6745363 119.957253,80.6745363 L186.421858,80.6745363 Z M148.597369,69.8819562 C149.268395,69.8819562 149.812369,70.4259302 149.812369,71.0969562 L149.812369,71.3651012 C149.812369,72.0361272 149.268395,72.5801012 148.597369,72.5801012 L119.957253,72.5801012 C119.286227,72.5801012 118.742253,72.0361272 118.742253,71.3651012 L118.742253,71.0969562 C118.742253,70.4259302 119.286227,69.8819562 119.957253,69.8819562 L148.597369,69.8819562 Z M219.113024,69.8819562 C219.78405,69.8819562 220.328024,70.4259302 220.328024,71.0969562 L220.328024,71.3651012 C220.328024,72.0361272 219.78405,72.5801012 219.113024,72.5801012 L161.834366,72.5801012 C161.16334,72.5801012 160.619366,72.0361272 160.619366,71.3651012 L160.619366,71.0969562 C160.619366,70.4259302 161.16334,69.8819562 161.834366,69.8819562 L219.113024,69.8819562 Z M148.597369,58.2799325 C149.268395,58.2799325 149.812369,58.8239066 149.812369,59.4949325 L149.812369,59.7630776 C149.812369,60.4341035 149.268395,60.9780776 148.597369,60.9780776 L119.957253,60.9780776 C119.286227,60.9780776 118.742253,60.4341035 118.742253,59.7630776 L118.742253,59.4949325 C118.742253,58.8239066 119.286227,58.2799325 119.957253,58.2799325 L148.597369,58.2799325 Z M219.113024,58.2799325 C219.78405,58.2799325 220.328024,58.8239066 220.328024,59.4949325 L220.328024,59.7630776 C220.328024,60.4341035 219.78405,60.9780776 219.113024,60.9780776 L161.834366,60.9780776 C161.16334,60.9780776 160.619366,60.4341035 160.619366,59.7630776 L160.619366,59.4949325 C160.619366,58.8239066 161.16334,58.2799325 161.834366,58.2799325 L219.113024,58.2799325 Z M106.720256,47.4873524 C107.391282,47.4873524 107.935256,48.0313265 107.935256,48.7023524 L107.935256,48.9704975 C107.935256,49.6415234 107.391282,50.1854975 106.720256,50.1854975 L88.6169618,50.1854975 C87.9459358,50.1854975 87.4019618,49.6415234 87.4019618,48.9704975 L87.4019618,48.7023524 C87.4019618,48.0313265 87.9459358,47.4873524 88.6169618,47.4873524 L106.720256,47.4873524 Z M186.421858,47.4873524 C187.092884,47.4873524 187.636858,48.0313265 187.636858,48.7023524 L187.636858,48.9704975 C187.636858,49.6415234 187.092884,50.1854975 186.421858,50.1854975 L119.957253,50.1854975 C119.286227,50.1854975 118.742253,49.6415234 118.742253,48.9704975 L118.742253,48.7023524 C118.742253,48.0313265 119.286227,47.4873524 119.957253,47.4873524 L186.421858,47.4873524 Z M106.720256,36.6947723 C107.391282,36.6947723 107.935256,37.2387464 107.935256,37.9097723 L107.935256,38.1779174 C107.935256,38.8489433 107.391282,39.3929174 106.720256,39.3929174 L88.6169618,39.3929174 C87.9459358,39.3929174 87.4019618,38.8489433 87.4019618,38.1779174 L87.4019618,37.9097723 C87.4019618,37.2387464 87.9459358,36.6947723 88.6169618,36.6947723 L106.720256,36.6947723 Z M186.421858,36.6947723 C187.092884,36.6947723 187.636858,37.2387464 187.636858,37.9097723 L187.636858,38.1779174 C187.636858,38.8489433 187.092884,39.3929174 186.421858,39.3929174 L119.957253,39.3929174 C119.286227,39.3929174 118.742253,38.8489433 118.742253,38.1779174 L118.742253,37.9097723 C118.742253,37.2387464 119.286227,36.6947723 119.957253,36.6947723 L186.421858,36.6947723 Z" id="Combined-Shape" fill="#00CD9E"></path>
                <path d="M32.2827791,158.016863 L276.798081,158.016863 C279.780419,158.016863 282.198081,160.434526 282.198081,163.416863 L282.198081,168 L282.198081,168 L26.8827791,168 L26.8827791,163.416863 C26.8827791,160.434526 29.3004415,158.016863 32.2827791,158.016863 Z" id="Rectangle-Copy-24" stroke="#00CD9E" stroke-width="2.16"></path>
                <path d="M125.909103,158.016863 L178.038433,158.016863 C178.784018,158.016863 179.388433,158.621279 179.388433,159.366863 C179.388433,159.737226 179.236275,160.091324 178.967592,160.346232 L178.721086,160.580101 C176.986377,162.225876 174.68633,163.143339 172.29514,163.143339 L131.652396,163.143339 C129.261206,163.143339 126.96116,162.225876 125.226451,160.580101 L124.979944,160.346232 C124.439054,159.833072 124.416574,158.978595 124.929735,158.437704 C125.184643,158.169021 125.538741,158.016863 125.909103,158.016863 Z" id="Rectangle" fill="#00CD9E"></path>
            </g>
        </g>
    </g>
</svg>