<?xml version="1.0" encoding="UTF-8"?>
<svg width="217px" height="212px" viewBox="0 0 217 212" version="1.1" xmlns="http://www.w3.org/2000/svg" xmlns:xlink="http://www.w3.org/1999/xlink">
    <title>Illustration3</title>
    <g id="Real" stroke="none" stroke-width="1" fill="none" fill-rule="evenodd">
        <g id="Landing_Light" transform="translate(-1033.000000, -663.000000)">
            <g id="Illustration3" transform="translate(1035.000000, 665.061907)">
                <g id="Group-12">
                    <rect id="Rectangle" fill="#00CD9E" x="9.96333755" y="139.736101" width="17.7724399" height="17.8133649"></rect>
                    <g id="Group-11" transform="translate(103.403287, 103.839471) rotate(-45.000000) translate(-103.403287, -103.839471) translate(67.050569, 67.403043)">
                        <path d="M54.0869659,4.58829095 C61.9901606,4.58829095 68.3969659,10.9950962 68.3969659,18.898291 L68.3969659,54.2444648 C68.3969659,62.1476596 61.9901606,68.5544648 54.0869659,68.5544648 L18.8877497,68.5544648 C10.9845549,68.5544648 4.57774968,62.1476596 4.57774968,54.2444648 L4.57774968,18.898291 C4.57774968,10.9950962 10.9845549,4.58829095 18.8877497,4.58829095 L54.0869659,4.58829095 Z M54.7923186,46.1040801 L51.8799173,46.1049428 C51.3437591,46.1051017 50.9089884,46.5408734 50.90883,47.0782663 L50.90883,47.0782663 L50.9085328,48.0859403 L50.9075887,48.1601284 C50.8678528,49.7380348 49.5789999,51.0054416 47.9952708,51.0059108 L47.9952708,51.0059108 L47.0378525,51.0061944 C46.5016943,51.0063532 46.0669236,51.442125 46.0667652,51.9795179 L46.0667652,51.9795179 L46.0659044,54.8986256 C46.065746,55.4360185 46.5002597,55.8715328 47.036418,55.871374 L47.036418,55.871374 L47.9938362,55.8710904 L48.1222682,55.8700094 C52.352318,55.800015 55.76128,52.3406542 55.762535,48.0845024 L55.762535,48.0845024 L55.7628322,47.0768285 C55.7629906,46.5394356 55.3284769,46.1039213 54.7923186,46.1040801 L54.7923186,46.1040801 Z M48.0211234,17.0146547 L24.6613595,17.0146547 L24.5325941,17.0156948 C20.2915709,17.0842581 16.8747716,20.5336443 16.8747716,24.7787628 L16.8747716,24.7787628 L16.8747716,48.0710874 L16.8758147,48.1994811 C16.9445765,52.4282605 20.4039499,55.8351955 24.6613595,55.8351955 L24.6613595,55.8351955 L40.2468146,55.8351955 C40.7843663,55.8351955 41.2201381,55.4006818 41.2201381,54.864682 L41.2201381,54.864682 L41.2201381,51.9531415 C41.2201381,51.4171416 40.7843663,50.9826279 40.2468146,50.9826279 L40.2468146,50.9826279 L24.6613595,50.9826279 L24.5871497,50.981706 C23.0087887,50.9424469 21.741389,49.6543484 21.741389,48.0710874 L21.741389,48.0710874 L21.741389,24.7787628 L21.7423137,24.7047673 C21.7816864,23.130963 23.0735144,21.8672223 24.6613595,21.8672223 L24.6613595,21.8672223 L48.0211234,21.8672223 L48.0953332,21.8681442 C49.6736942,21.9074033 50.9410939,23.1955018 50.9410939,24.7787628 L50.9410939,24.7787628 L50.9410939,40.2761805 C50.9410939,40.8121803 51.3768656,41.246694 51.9144174,41.246694 L51.9144174,41.246694 L54.8343878,41.246694 C55.3719396,41.246694 55.8077113,40.8121803 55.8077113,40.2761805 L55.8077113,40.2761805 L55.8077113,24.7787628 L55.8066682,24.6503691 C55.7379064,20.4215897 52.278533,17.0146547 48.0211234,17.0146547 L48.0211234,17.0146547 Z M45.0935361,26.6491376 L42.1819956,26.6497123 C41.6460038,26.6498388 41.211579,27.0856837 41.2116525,27.6232273 L41.2116525,27.6232273 L41.2138692,40.2858693 L41.2138692,40.2858693 C41.2143341,40.8242526 40.7795254,41.2597284 40.2435263,41.2585319 L40.2435263,41.2585319 L27.6259617,41.2499389 C27.0899654,41.2495826 26.6551581,41.685053 26.6547807,42.2226013 L26.6547807,42.2226013 L26.652777,45.142571 C26.652409,45.6801226 27.0866237,46.1161941 27.6226234,46.1165639 L27.6226234,46.1165639 L41.9603847,46.1264561 L42.0384464,46.1257277 C44.2711954,46.0840275 46.0670638,44.2571254 46.0670638,42.0095614 L46.0670638,42.0095614 L46.0642406,27.6222696 C46.0641351,27.0847179 45.6295359,26.6491376 45.0935361,26.6491376 L45.0935361,26.6491376 Z" id="Combined-Shape" fill="#00CD9E"></path>
                        <rect id="Rectangle" stroke="#00CD9E" stroke-width="2.16" stroke-linecap="round" stroke-linejoin="round" x="7.10395204e-14" y="1.50075077e-12" width="72.7054362" height="72.8728563" rx="18.9"></rect>
                    </g>
                    <g id="Group-4" transform="translate(75.928674, 76.317859)"></g>
                    <path d="M185.560885,45.2712868 L202.74,45.2712868 C208.406442,45.2712868 213,49.8648452 213,55.5312868 L213,72.7972123 C213,78.4636538 208.406442,83.0572123 202.74,83.0572123 L185.560885,83.0572123 C179.894443,83.0572123 175.300885,78.4636538 175.300885,72.7972123 L175.300885,55.5312868 C175.300885,49.8648452 179.894443,45.2712868 185.560885,45.2712868 Z M177.724399,79.8184187 L147.295828,101.140477" id="Combined-Shape" stroke="#00CD9E" stroke-width="2.16" stroke-linecap="round" stroke-linejoin="round"></path>
                    <path d="M142.012266,147.215591 L159.191381,147.215591 C164.857823,147.215591 169.451381,151.809149 169.451381,157.475591 L169.451381,174.741516 C169.451381,180.407958 164.857823,185.001516 159.191381,185.001516 L142.012266,185.001516 C136.345825,185.001516 131.752266,180.407958 131.752266,174.741516 L131.752266,157.475591 C131.752266,151.809149 136.345825,147.215591 142.012266,147.215591 Z M134.248281,181.762723 L107.168247,200.729698" id="Combined-Shape" stroke="#00CD9E" stroke-width="2.16" stroke-linecap="round" stroke-linejoin="round" transform="translate(138.309814, 176.734691) rotate(90.000000) translate(-138.309814, -176.734691) "></path>
                    <path d="M150.263834,176.882427 L158.757568,181.797579 C159.591638,182.280238 160.105239,183.170845 160.105239,184.134501 L160.105239,193.97557 C160.105239,194.939226 159.591638,195.829833 158.757568,196.312493 L150.263834,201.227644 C149.427268,201.711748 148.395741,201.711748 147.559175,201.227644 L139.065441,196.312493 C138.231371,195.829833 137.71777,194.939226 137.71777,193.97557 L137.71777,184.134501 C137.71777,183.170845 138.231371,182.280238 139.065441,181.797579 L147.559175,176.882427 C148.395741,176.398323 149.427268,176.398323 150.263834,176.882427 Z" id="Polygon" fill="#00CD9E"></path>
                    <path d="M34.91652,109.037344 L52.095635,109.037344 C57.7620765,109.037344 62.355635,113.630903 62.355635,119.297344 L62.355635,136.56327 C62.355635,142.229711 57.7620765,146.82327 52.095635,146.82327 L34.91652,146.82327 C29.2500784,146.82327 24.65652,142.229711 24.65652,136.56327 L24.65652,119.297344 C24.65652,113.630903 29.2500784,109.037344 34.91652,109.037344 Z M27.0800345,143.584476 L-2.79953838e-12,162.551451" id="Combined-Shape" stroke="#00CD9E" stroke-width="2.16" stroke-linecap="round" stroke-linejoin="round" transform="translate(31.177817, 138.556444) rotate(180.000000) translate(-31.177817, -138.556444) "></path>
                    <path d="M73.0433005,1.65871726 L90.2224155,1.65871726 C95.8888571,1.65871726 100.482416,6.25227572 100.482416,11.9187173 L100.482416,29.1846428 C100.482416,34.8510843 95.8888571,39.4446428 90.2224155,39.4446428 L73.0433005,39.4446428 C67.376859,39.4446428 62.7833005,34.8510843 62.7833005,29.1846428 L62.7833005,11.9187173 C62.7833005,6.25227572 67.376859,1.65871726 73.0433005,1.65871726 Z M65.206815,36.2058491 L38.1267806,55.1728243" id="Combined-Shape" stroke="#00CD9E" stroke-width="2.16" stroke-linecap="round" stroke-linejoin="round" transform="translate(69.304598, 31.177817) rotate(270.000000) translate(-69.304598, -31.177817) "></path>
                    <ellipse id="Oval" fill="#00CD9E" cx="59.1068268" cy="18.6861892" rx="10.3672566" ry="10.3911295"></ellipse>
                    <path d="M196.542558,55.1946242 L204.291292,70.7277784 C204.690679,71.5283911 204.365421,72.5011828 203.564808,72.9005695 C203.340209,73.0126109 203.092648,73.070932 202.841654,73.070932 L187.344186,73.070932 C186.449485,73.070932 185.724186,72.3456333 185.724186,71.450932 C185.724186,71.1999381 185.782507,70.9523773 185.894549,70.7277784 L193.643283,55.1946242 C194.04267,54.3940115 195.015461,54.0687536 195.816074,54.4681402 C196.130644,54.6250641 196.385634,54.8800538 196.542558,55.1946242 Z" id="Triangle" fill="#00CD9E"></path>
                    <path d="M77.1337974,49.232396 C56.9733312,59.0938686 43.0847029,79.8410036 43.0847029,103.839471 C43.0847029,108.409999 43.5884644,112.862595 44.543371,117.144523 M49.5157333,131.096264 C59.480294,150.947324 79.9895787,164.566852 103.672566,164.566852 C108.47865,164.566852 113.154034,164.005969 117.637117,162.945948 M131.503647,157.79508 C150.962927,147.690932 164.26043,127.321676 164.26043,103.839471 C164.26043,101.798904 164.160016,99.7818429 163.96387,97.7929824 M160.80801,83.5832483 C152.486705,60.0040777 130.047771,43.112091 103.672566,43.112091 C98.7016304,43.112091 93.8705145,43.7121106 89.2473792,44.8438322" id="Shape" stroke="#00CD9E" stroke-width="2.16" stroke-linecap="round" stroke-linejoin="round"></path>
                </g>
                <path d="M42.460352,43.7053554 C27.1928904,59.246918 17.7724399,80.575479 17.7724399,104.109371 C17.7724399,107.50767 17.9688698,110.859986 18.35097,114.155532 M43.1402837,165.197851 C58.6684124,180.656204 80.0576628,190.207301 103.672566,190.207301 C107.774736,190.207301 111.809745,189.919092 115.758538,189.361773 M166.023208,163.332337 C180.619171,147.899841 189.572693,127.052617 189.572693,104.109371 C189.572693,100.998264 189.408061,97.9256978 189.087053,94.8999464 M168.138179,47.2054147 C152.39719,29.3043563 129.350649,18.0114405 103.672566,18.0114405 C98.1011032,18.0114405 92.6535264,18.5430827 87.377579,19.5585141" id="Shape" stroke="#00CD9E" stroke-width="2.16" stroke-linecap="round" stroke-linejoin="round"></path>
                <path d="M103.672566,169.694941 C111.033173,169.694941 118.109925,168.476815 124.713102,166.230717 C126.053797,168.082049 127.232891,169.779304 128.250586,171.321883 C126.344914,173.852716 125.214918,177.003218 125.214918,180.418253 L125.215699,182.168222 C118.357264,184.065579 111.133016,185.079211 103.672566,185.079211 C79.249653,185.079211 57.3580739,174.216324 42.5449146,157.048107 L42.5461441,140.545799 C42.5461441,138.154124 41.9919127,135.892195 41.0051571,133.881999 C42.2874632,132.891315 43.345864,132.081477 44.1803596,131.452484 C54.5209444,154.022606 77.2707251,169.694941 103.672566,169.694941 Z M176.851416,85.1604824 C178.593696,86.3922722 180.60804,87.2633101 182.786281,87.6651781 C183.882107,92.9740635 184.456384,98.4744979 184.456384,104.109371 C184.456384,128.549057 173.653373,150.459754 156.572478,165.305915 L140.294564,165.303883 C137.852783,165.303883 135.546552,165.88558 133.506287,166.918259 C132.633665,165.702523 131.840921,164.61576 131.128054,163.65797 C153.552121,153.255888 169.107459,130.503384 169.107459,104.109371 C169.107459,99.8481971 168.702018,95.6819372 167.927694,91.6472314 C170.486918,89.8110787 173.462154,87.6485941 176.851416,85.1604824 Z M73.7736461,41.1220283 C74.5142216,42.1554509 75.2580566,43.3344116 76.0051512,44.6589105 C53.6956472,55.105526 38.2376738,77.79809 38.2376738,104.109371 C38.2376738,111.415114 39.4294575,118.441861 41.6287919,125.004954 C40.0976929,125.99351 38.3773998,127.132136 36.4685652,128.41891 C33.9561512,126.542234 30.8407479,125.431429 27.4664981,125.431429 L25.719208,125.432131 C23.8737645,118.638387 22.8887484,111.489175 22.8887484,104.109371 C22.8887484,79.4816982 33.8585895,57.4220691 51.1679187,42.5714991 L67.3198483,42.5722921 C69.6291241,42.5722921 71.8171617,42.0520145 73.7736461,41.1220283 Z M103.672566,23.1395304 C131.427052,23.1395304 155.912492,37.1682061 170.455593,58.5368969 L170.453856,72.8010325 C170.453856,74.8751671 170.870688,76.8517213 171.624969,78.6511304 C169.728852,80.0243123 167.731242,81.46201 165.632138,82.9642233 C156.854474,57.1173761 132.429913,38.5238001 103.672566,38.5238001 C96.7363761,38.5238001 90.0522502,39.6055013 83.778946,41.6097807 C81.6354403,38.7426844 80.2841625,36.8903477 79.7250625,36.0536597 C81.4114514,33.613291 82.3994943,30.651257 82.3994943,27.4579219 L82.3982848,25.9766465 C89.1765723,24.1268641 96.3095321,23.1395304 103.672566,23.1395304 Z" id="Combined-Shape" fill-opacity="0.181463068" fill="#00CD9E"></path>
            </g>
        </g>
    </g>
</svg>