<?xml version="1.0" encoding="UTF-8"?>
<svg width="303px" height="169px" viewBox="0 0 303 169" version="1.1" xmlns="http://www.w3.org/2000/svg" xmlns:xlink="http://www.w3.org/1999/xlink">
    <title>Illustration1</title>
    <g id="Real" stroke="none" stroke-width="1" fill="none" fill-rule="evenodd">
        <g id="Landing_Light" transform="translate(-137.000000, -684.000000)">
            <g id="Illustration1" transform="translate(137.000000, 685.000000)">
                <path d="M143.884881,1.13321321 L156.734295,20.7295287 L144.514119,39.0712375 C126.092664,41.9724681 111.383597,56.0557158 107.547515,74.1571657 L92.3075481,62.432302 L69.0993795,77.0053217 C72.2312912,36.8940293 103.947309,4.81276022 143.884881,1.13321321 Z" id="Combined-Shape" stroke="#00CD9E" stroke-width="2.16"></path>
                <path d="M226.98629,6.93614148 L239.835703,26.532457 L227.615528,44.8741657 C209.194073,47.7753964 194.485006,61.858644 190.648924,79.9600939 L175.408957,68.2352302 L152.200788,82.80825 C155.3327,42.6969576 187.048717,10.6156885 226.98629,6.93614148 Z" id="Combined-Shape" stroke="#00CD9E" stroke-width="2.16" transform="translate(196.018229, 44.872397) rotate(90.000000) translate(-196.018229, -44.872397) "></path>
                <path d="M226.527595,15.5231954 L226.369231,15.5437895 C194.652717,19.860705 169.08093,43.4136068 161.711859,74.0204472 L161.518265,74.8491867 L177.950325,64.5317751 L189.979517,73.786795 L190.111816,73.4510025 C196.317422,57.960422 209.962496,46.3195543 226.557777,42.8543902 L226.627293,42.840222 L235.604123,29.366367 L226.527595,15.5231954 Z" id="Combined-Shape" fill-opacity="0.181463068" fill="#00CD9E" transform="translate(198.561194, 45.186191) rotate(90.000000) translate(-198.561194, -45.186191) "></path>
                <path d="M241.128229,26.5376765 L227.533273,5.80339134 L226.888418,5.86279903 C186.391734,9.59358089 154.296846,42.125638 151.126679,82.7243264 L150.959846,84.860859 L175.346868,69.5477893 L191.348685,81.8595031 L191.703594,80.184685 C195.458599,62.4648317 209.859053,48.7627368 227.783606,45.939796 L228.25063,45.8662444 L241.128229,26.5376765 Z M226.444066,8.07383124 L238.543857,26.5277991 L226.978661,43.8862176 L226.885263,43.9017175 C209.080852,46.9331402 194.68894,60.2061619 190.114985,77.5488345 L189.977362,78.0835851 L175.471765,66.923422 L153.473744,80.7359252 L153.494716,80.5288115 C157.576134,42.4768678 187.797719,12.1956386 225.90501,8.12773967 L226.444066,8.07383124 Z" id="Combined-Shape" fill="#00CD9E" fill-rule="nonzero" transform="translate(196.044038, 45.332125) rotate(90.000000) translate(-196.044038, -45.332125) "></path>
                <path d="M151.567363,44.7216278 C172.996699,44.7216278 190.368608,62.1013416 190.368608,83.540305 C190.368608,104.979268 172.996699,122.358982 151.567363,122.358982 C130.138027,122.358982 112.766118,104.979268 112.766118,83.540305 C112.766118,62.1013416 130.138027,44.7216278 151.567363,44.7216278 Z M151.567363,116.967499 C150.823289,116.967499 150.220098,117.570962 150.220098,118.31537 C150.220098,119.059778 150.823289,119.663241 151.567363,119.663241 C152.311437,119.663241 152.914629,119.059778 152.914629,118.31537 C152.914629,117.570962 152.311437,116.967499 151.567363,116.967499 Z M160.112083,117.275213 C159.957382,116.547072 159.241961,116.082264 158.514147,116.237035 C157.786332,116.391806 157.321733,117.107548 157.476435,117.83569 C157.631136,118.563831 158.346557,119.028639 159.074371,118.873868 C159.802186,118.719097 160.266785,118.003355 160.112083,117.275213 Z M144.62058,116.237035 C143.892765,116.082264 143.177345,116.547072 143.022643,117.275213 C142.867941,118.003355 143.332541,118.719097 144.060355,118.873868 C144.78817,119.028639 145.50359,118.563831 145.658292,117.83569 C145.812994,117.107548 145.348394,116.391806 144.62058,116.237035 Z M166.936093,114.760679 C166.633451,114.080628 165.837068,113.774788 165.157322,114.077566 C164.477577,114.380345 164.171874,115.177085 164.474516,115.857136 C164.777159,116.537187 165.573541,116.843027 166.253287,116.540249 C166.933033,116.237471 167.238735,115.44073 166.936093,114.760679 Z M137.977404,114.077566 C137.297658,113.774788 136.501276,114.080628 136.198634,114.760679 C135.895991,115.44073 136.201694,116.237471 136.88144,116.540249 C137.561185,116.843027 138.357568,116.537187 138.66021,115.857136 C138.962852,115.177085 138.65715,114.380345 137.977404,114.077566 Z M173.088415,110.881665 C172.651059,110.279426 171.80852,110.145921 171.206552,110.583473 C170.604583,111.021026 170.471138,111.863943 170.908494,112.466182 C171.34585,113.068421 172.188389,113.201926 172.790357,112.764374 C173.392326,112.326822 173.525771,111.483904 173.088415,110.881665 Z M131.928175,110.583473 C131.326206,110.145921 130.483667,110.279426 130.046311,110.881665 C129.608956,111.483904 129.742401,112.326822 130.344369,112.764374 C130.946338,113.201926 131.788877,113.068421 132.226233,112.466182 C132.663588,111.863943 132.530143,111.021026 131.928175,110.583473 Z M178.300164,105.807702 C177.747209,105.309596 176.895337,105.354261 176.397454,105.907464 C175.899572,106.460667 175.944216,107.312922 176.497171,107.811029 C177.050126,108.309135 177.901998,108.26447 178.399881,107.711267 C178.897764,107.158064 178.853119,106.305809 178.300164,105.807702 Z M126.737272,105.907464 C126.239389,105.354261 125.387517,105.309596 124.834562,105.807702 C124.281607,106.305809 124.236963,107.158064 124.734846,107.711267 C125.232728,108.26447 126.084601,108.309135 126.637555,107.811029 C127.19051,107.312922 127.235155,106.460667 126.737272,105.907464 Z M156.919255,63.9441025 C155.718078,63.6112854 154.473706,64.3127984 154.139887,65.5110601 L154.139887,65.5110601 L144.375052,101.172949 L144.337366,101.329409 C144.103482,102.477424 144.796922,103.626877 145.946018,103.945224 C146.148146,104.001219 146.351478,104.02794 146.551498,104.02794 C147.540313,104.02794 148.447856,103.374916 148.725386,102.378266 L148.725386,102.378266 L158.490222,66.7163774 L158.527907,66.559935 C158.761792,65.4120401 158.068351,64.2624493 156.919255,63.9441025 Z M182.343562,99.7605472 C181.699174,99.388343 180.8752,99.6092255 180.503163,100.253902 C180.131126,100.898579 180.351909,101.722924 180.996296,102.095128 C181.640683,102.467332 182.464658,102.24645 182.836695,101.601773 C183.208732,100.957096 182.987949,100.132751 182.343562,99.7605472 Z M122.631564,100.253902 C122.259527,99.6092255 121.435552,99.388343 120.791165,99.7605472 C120.146778,100.132751 119.925995,100.957096 120.298032,101.601773 C120.670069,102.24645 121.494043,102.467332 122.13843,102.095128 C122.782818,101.722924 123.003601,100.898579 122.631564,100.253902 Z M185.041891,93.0044899 C184.334235,92.774455 183.574169,93.1619016 183.344238,93.8698761 C183.114306,94.5778506 183.501579,95.3382575 184.209235,95.5682923 C184.916892,95.7983272 185.676957,95.4108806 185.906889,94.7029061 C186.136821,93.9949316 185.749548,93.2345247 185.041891,93.0044899 Z M119.790489,93.8698761 C119.560557,93.1619016 118.800492,92.774455 118.092835,93.0044899 C117.385179,93.2345247 116.997906,93.9949316 117.227838,94.7029061 C117.457769,95.4108806 118.217834,95.7983272 118.925491,95.5682923 C119.633148,95.3382575 120.02042,94.5778506 119.790489,93.8698761 Z M139.448592,73.0112761 C138.504574,72.2114921 137.102923,72.3428269 136.31807,73.3044397 L136.31807,73.3044397 L128.908199,82.3813399 L128.794248,82.5334528 C128.224561,83.3640661 128.263697,84.4909917 128.911163,85.2806704 L128.911163,85.2806704 L136.321034,94.3189248 L136.44557,94.4587543 C136.875612,94.9033083 137.450177,95.1319934 138.028416,95.1319934 C138.530954,95.1319934 139.036307,94.9592956 139.452149,94.6055972 C140.394536,93.8040016 140.520504,92.3759236 139.733576,91.4161223 L139.733576,91.4161223 L133.511211,83.8263254 L139.73654,76.2002982 L139.83791,76.0663628 C140.507988,75.1100347 140.349558,73.7744182 139.448592,73.0112761 Z M166.702614,73.1750075 C165.9002,72.3310541 164.581913,72.249055 163.682497,73.0142222 C162.740102,73.8158259 162.614282,75.2439184 163.401216,76.2037294 L163.401216,76.2037294 L169.623626,83.7936032 L163.398252,91.4197077 L163.296861,91.5536247 C162.626649,92.5098312 162.785081,93.8454613 163.686053,94.6086111 C164.101306,94.9605015 164.605181,95.1319934 165.10624,95.1319934 C165.743938,95.1319934 166.377042,94.8539229 166.816599,94.3152935 L166.816599,94.3152935 L174.226524,85.2383014 L174.340476,85.0861619 C174.910167,84.2554148 174.87103,83.1284861 174.22356,82.3389416 L174.22356,82.3389416 L166.813635,73.3007465 Z M186.147539,85.8273698 L186.020075,85.8322006 C185.389339,85.8861747 184.865138,86.3811655 184.796511,87.0343983 C184.718734,87.7747288 185.25557,88.4379642 185.995568,88.5157761 C186.735566,88.593588 187.398504,88.0565105 187.476281,87.31618 C187.554058,86.5758495 187.017222,85.9126141 186.277224,85.8348022 L186.277224,85.8348022 L186.147539,85.8273698 Z M116.987187,85.8273698 L116.857503,85.8348022 C116.117505,85.9126141 115.580669,86.5758495 115.658446,87.31618 C115.736222,88.0565105 116.39916,88.593588 117.139158,88.5157761 C117.879156,88.4379642 118.415992,87.7747288 118.338216,87.0343983 C118.260439,86.2940678 117.597501,85.7569903 116.857503,85.8348022 Z M186.125253,78.5574016 L185.995568,78.564834 C185.25557,78.6426458 184.718734,79.3058813 184.796511,80.0462118 C184.874288,80.7865423 185.537226,81.3236198 186.277224,81.2458079 C187.017222,81.167996 187.554058,80.5047606 187.476281,79.7644301 C187.398504,79.0240996 186.735566,78.4870221 185.995568,78.564834 Z M117.009474,78.5574016 L116.882009,78.5622324 C116.251274,78.6162065 115.727072,79.1111973 115.658446,79.7644301 C115.580669,80.5047606 116.117505,81.167996 116.857503,81.2458079 C117.597501,81.3236198 118.260439,80.7865423 118.338216,80.0462118 C118.415992,79.3058813 117.879156,78.6426458 117.139158,78.564834 L117.139158,78.564834 L117.009474,78.5574016 Z M185.906889,72.377704 C185.676957,71.6697295 184.916892,71.2822829 184.209235,71.5123177 C183.501579,71.7423526 183.114306,72.5027594 183.344238,73.2107339 C183.574169,73.9187084 184.334235,74.3061551 185.041891,74.0761202 C185.749548,73.8460854 186.136821,73.0856785 185.906889,72.377704 Z M118.925491,71.5123177 C118.217834,71.2822829 117.457769,71.6697295 117.227838,72.377704 C116.997906,73.0856785 117.385179,73.8460854 118.092835,74.0761202 C118.800492,74.3061551 119.560557,73.9187084 119.790489,73.2107339 C120.02042,72.5027594 119.633148,71.7423526 118.925491,71.5123177 Z M182.836695,65.4788372 C182.464658,64.8341605 181.640683,64.613278 180.996296,64.9854822 C180.351909,65.3576865 180.131126,66.1820313 180.503163,66.8267079 C180.8752,67.4713845 181.699174,67.6922671 182.343562,67.3200629 C182.987949,66.9478586 183.208732,66.1235138 182.836695,65.4788372 Z M122.13843,64.9854822 C121.494043,64.613278 120.670069,64.8341605 120.298032,65.4788372 C119.925995,66.1235138 120.146778,66.9478586 120.791165,67.3200629 C121.435552,67.6922671 122.259527,67.4713845 122.631564,66.8267079 C123.003601,66.1820313 122.782818,65.3576865 122.13843,64.9854822 Z M178.399881,59.3693431 C177.901998,58.8161399 177.050126,58.7714751 176.497171,59.2695815 C175.944216,59.767688 175.899572,60.619943 176.397454,61.1731463 C176.895337,61.7263496 177.747209,61.7710144 178.300164,61.2729079 C178.853119,60.7748014 178.897764,59.9225464 178.399881,59.3693431 Z M126.637555,59.2695815 C126.084601,58.7714751 125.232728,58.8161399 124.734846,59.3693431 C124.236963,59.9225464 124.281607,60.7748014 124.834562,61.2729079 C125.387517,61.7710144 126.239389,61.7263496 126.737272,61.1731463 C127.235155,60.619943 127.19051,59.767688 126.637555,59.2695815 Z M172.790357,54.3162361 C172.188389,53.8786838 171.34585,54.0121888 170.908494,54.6144279 C170.471138,55.216667 170.604583,56.0595845 171.206552,56.4971368 C171.80852,56.9346891 172.651059,56.8011841 173.088415,56.198945 C173.525771,55.5967059 173.392326,54.7537885 172.790357,54.3162361 Z M132.226233,54.6144279 C131.788877,54.0121888 130.946338,53.8786838 130.344369,54.3162361 C129.742401,54.7537885 129.608956,55.5967059 130.046311,56.198945 C130.483667,56.8011841 131.326206,56.9346891 131.928175,56.4971368 C132.530143,56.0595845 132.663588,55.216667 132.226233,54.6144279 Z M166.253287,50.5403612 C165.573541,50.237583 164.777159,50.543423 164.474516,51.2234739 C164.171874,51.9035249 164.477577,52.7002654 165.157322,53.0030436 C165.837068,53.3058218 166.633451,52.9999817 166.936093,52.3199308 C167.238735,51.6398798 166.933033,50.8431394 166.253287,50.5403612 Z M138.66021,51.2234739 C138.357568,50.543423 137.561185,50.237583 136.88144,50.5403612 C136.201694,50.8431394 135.895991,51.6398798 136.198634,52.3199308 C136.501276,52.9999817 137.297658,53.3058218 137.977404,53.0030436 C138.65715,52.7002654 138.962852,51.9035249 138.66021,51.2234739 Z M159.074371,48.2067421 C158.346557,48.0519709 157.631136,48.5167792 157.476435,49.2449206 C157.321733,49.9730619 157.786332,50.688804 158.514147,50.8435752 C159.241961,50.9983464 159.957382,50.5335381 160.112083,49.8053967 C160.266785,49.0772554 159.802186,48.3615133 159.074371,48.2067421 Z M145.658292,49.2449206 C145.50359,48.5167792 144.78817,48.0519709 144.060355,48.2067421 C143.332541,48.3615133 142.867941,49.0772554 143.022643,49.8053967 C143.177345,50.5335381 143.892765,50.9983464 144.62058,50.8435752 C145.348394,50.688804 145.812994,49.9730619 145.658292,49.2449206 Z M151.567363,47.4173693 C150.823289,47.4173693 150.220098,48.0208316 150.220098,48.76524 C150.220098,49.5096485 150.823289,50.1131108 151.567363,50.1131108 C152.311437,50.1131108 152.914629,49.5096485 152.914629,48.76524 C152.914629,48.0208316 152.311437,47.4173693 151.567363,47.4173693 Z" id="Combined-Shape" fill="#00CD9E"></path>
                <path d="M221.185967,90.074885 L234.035381,109.671201 L221.815205,128.012909 C203.393751,130.91414 188.684684,144.997388 184.848602,163.098837 L169.608634,151.373974 L146.400466,165.946994 C149.532377,125.835701 181.248395,93.754432 221.185967,90.074885 Z" id="Combined-Shape" stroke="#00CD9E" stroke-width="2.16" transform="translate(190.217906, 128.011141) rotate(180.000000) translate(-190.217906, -128.011141) "></path>
                <path d="M138.084559,84.2719567 L150.933972,103.868272 L138.713797,122.209981 C120.292342,125.111212 105.583275,139.194459 101.747193,157.295909 L86.5072258,145.571045 L63.2990571,160.144065 C66.4309688,120.032773 98.1469862,87.9515037 138.084559,84.2719567 Z" id="Combined-Shape" stroke="#00CD9E" stroke-width="2.16" transform="translate(107.116498, 122.208213) rotate(270.000000) translate(-107.116498, -122.208213) "></path>
                <path d="M141.196922,6.86236502 L141.03851,6.88295997 C109.321996,11.1998755 83.7502094,34.7527773 76.3811382,65.3596177 L76.1875918,66.1883563 L92.6196038,55.8709456 L104.648844,65.1259646 L104.781095,64.7901731 C110.986701,49.2995925 124.631775,37.6587248 141.227056,34.1935607 L141.29662,34.1791221 L150.27345,20.7055366 L141.196922,6.86236502 Z" id="Combined-Shape" fill-opacity="0.181463068" fill="#00CD9E"></path>
                <path d="M158.026423,20.7342851 L144.431467,0 L143.786612,0.0594076852 C103.289929,3.79018955 71.1950397,36.3222466 68.0248726,76.9209351 L67.8580405,79.0574677 L92.2451098,63.7443971 L108.246879,76.0561117 L108.601788,74.3812937 C112.356793,56.6614403 126.757247,42.9593455 144.6818,40.1364047 L145.148824,40.062853 L158.026423,20.7342851 Z M143.342308,2.270439 L155.442099,20.7244068 L143.877172,38.0828253 L143.783457,38.0983261 C125.979047,41.1297489 111.587134,54.4027706 107.013179,71.7454431 L106.875604,72.2801929 L92.3699593,61.1200307 L70.3719858,74.9325329 L70.39291,74.7254202 C74.4743284,36.6734765 104.695913,6.39224725 142.803204,2.32434832 L143.342308,2.270439 Z" id="Combined-Shape" fill="#00CD9E" fill-rule="nonzero"></path>
                <path d="M217.870656,100.892301 L217.712292,100.912943 C185.995779,105.229858 160.423992,128.78276 153.054921,159.3896 L152.861326,160.218292 L169.293386,149.900928 L181.322578,159.1559 L181.454878,158.820156 C187.660484,143.329575 201.305558,131.688707 217.900838,128.223543 L217.970623,128.209327 L226.947183,114.735742 L217.870656,100.892301 Z" id="Combined-Shape" fill-opacity="0.181463068" fill="#00CD9E" transform="translate(189.904255, 130.555296) rotate(180.000000) translate(-189.904255, -130.555296) "></path>
                <path d="M235.327444,109.676817 L221.732488,88.9425323 L221.087632,89.00194 C180.590949,92.7327219 148.49606,125.264779 145.325893,165.863467 L145.159061,168 L169.546082,152.686883 L185.547899,164.998644 L185.902809,163.323826 C189.657814,145.603973 204.058268,131.901878 221.982821,129.078937 L222.449845,129.005385 L235.327444,109.676817 Z M220.64328,91.213194 L232.743071,109.667162 L221.178144,127.025311 L221.084478,127.040858 C203.280067,130.072281 188.888155,143.345303 184.314199,160.687975 L184.176576,161.222948 L169.67098,150.062563 L147.672958,163.875018 L147.693931,163.667952 C151.775349,125.616009 181.996934,95.3347796 220.104225,91.2668807 L220.64328,91.213194 Z" id="Combined-Shape" fill="#00CD9E" fill-rule="nonzero" transform="translate(190.243252, 128.471266) rotate(180.000000) translate(-190.243252, -128.471266) "></path>
                <path d="M132.539886,92.2313764 L132.381474,92.2520192 C100.66496,96.5689348 75.0931736,120.121837 67.7241024,150.728677 L67.5305551,151.557368 L83.962568,141.240005 L95.9918073,150.494976 L96.1240593,150.159232 C102.329666,134.668652 115.97474,123.027784 132.57002,119.56262 L132.639853,119.548134 L141.616413,106.074818 L132.539886,92.2313764 Z" id="Combined-Shape" fill-opacity="0.181463068" fill="#00CD9E" transform="translate(104.573484, 121.894372) rotate(270.000000) translate(-104.573484, -121.894372) "></path>
                <path d="M152.225638,103.873426 L138.630682,83.139141 L137.985827,83.1985487 C97.4891433,86.9293305 65.3942545,119.461388 62.2240874,160.060076 L62.0572553,162.196609 L86.4443237,146.88349 L102.446093,159.195253 L102.801003,157.520435 C106.556008,139.800581 120.956462,126.098486 138.881015,123.275546 L139.348039,123.201994 L152.225638,103.873426 Z M137.541522,85.4098017 L149.641313,103.86377 L138.076386,121.221918 L137.982672,121.237467 C120.178261,124.26889 105.786349,137.541912 101.212394,154.884584 L101.074818,155.419556 L86.569174,144.259172 L64.5711996,158.071626 L64.5921248,157.864561 C68.6735432,119.812617 98.8951279,89.5313882 137.002419,85.4634893 L137.541522,85.4098017 Z" id="Combined-Shape" fill="#00CD9E" fill-rule="nonzero" transform="translate(107.141447, 122.667875) rotate(270.000000) translate(-107.141447, -122.667875) "></path>
                <g id="Group-8" transform="translate(23.577145, 8.134068)">
                    <polyline id="Line-2" stroke="#00CD9E" stroke-width="2.16" stroke-linecap="round" stroke-linejoin="round" points="70.4619831 147.517321 33.0080036 147.517321 33.0080036 114.569013 4.80549592 114.569013"></polyline>
                    <polyline id="Line-2-Copy-2" stroke="#00CD9E" stroke-width="2.16" stroke-linecap="round" stroke-linejoin="round" transform="translate(37.633740, 16.474154) scale(1, -1) translate(-37.633740, -16.474154) " points="70.4619831 32.9483083 33.0080036 32.9483083 33.0080036 5.17717281e-16 4.80549592 0"></polyline>
                    <ellipse id="Oval" fill="#00CD9E" cx="5.38906181" cy="114.224914" rx="5.38906181" ry="5.39148294"></ellipse>
                    <ellipse id="Oval-Copy-2" fill="#00CD9E" cx="5.38906181" cy="33.0830954" rx="5.38906181" ry="5.39148294"></ellipse>
                </g>
                <g id="Group-6" transform="translate(244.461316, 81.892729) scale(-1, 1) translate(-244.461316, -81.892729) translate(209.230325, 8.134068)">
                    <polyline id="Line-2" stroke="#00CD9E" stroke-width="2.16" stroke-linecap="round" stroke-linejoin="round" points="70.4619831 147.517321 33.0080036 147.517321 33.0080036 114.569013 4.80549592 114.569013"></polyline>
                    <polyline id="Line-2-Copy-2" stroke="#00CD9E" stroke-width="2.16" stroke-linecap="round" stroke-linejoin="round" transform="translate(37.633740, 16.474154) scale(1, -1) translate(-37.633740, -16.474154) " points="70.4619831 32.9483083 33.0080036 32.9483083 33.0080036 5.17717281e-16 4.80549592 0"></polyline>
                    <ellipse id="Oval" fill="#00CD9E" cx="5.38906181" cy="114.224914" rx="5.38906181" ry="5.39148294"></ellipse>
                    <ellipse id="Oval-Copy-2" fill="#00CD9E" cx="5.38906181" cy="33.0830954" rx="5.38906181" ry="5.39148294"></ellipse>
                </g>
                <g id="Group-9" transform="translate(246.010671, 60.896077)">
                    <polyline id="Line-3" stroke="#00CD9E" stroke-width="2.16" stroke-linecap="round" stroke-linejoin="round" points="7.61584577e-17 22.7790154 27.2201617 22.7790154 27.3494887 5.25669587 49.7889661 5.25669587"></polyline>
                    <polyline id="Line-3" stroke="#00CD9E" stroke-width="2.16" stroke-linecap="round" stroke-linejoin="round" transform="translate(24.894483, 31.540175) scale(1, -1) translate(-24.894483, -31.540175) " points="7.61584577e-17 40.301335 27.2201617 40.301335 27.3494887 22.7790154 49.7889661 22.7790154"></polyline>
                    <ellipse id="Oval-Copy-2" fill="#00CD9E" cx="51.6002668" cy="5.39148294" rx="5.38906181" ry="5.39148294"></ellipse>
                    <ellipse id="Oval-Copy-4" fill="#00CD9E" cx="51.6002668" cy="39.8969738" rx="5.38906181" ry="5.39148294"></ellipse>
                </g>
                <g id="Group-9-Copy" transform="translate(28.494664, 83.540305) scale(-1, 1) translate(-28.494664, -83.540305) translate(0.000000, 60.896077)">
                    <polyline id="Line-3" stroke="#00CD9E" stroke-width="2.16" stroke-linecap="round" stroke-linejoin="round" points="7.61584577e-17 22.7790154 27.2201617 22.7790154 27.3494887 5.25669587 49.7889661 5.25669587"></polyline>
                    <polyline id="Line-3" stroke="#00CD9E" stroke-width="2.16" stroke-linecap="round" stroke-linejoin="round" transform="translate(24.894483, 31.540175) scale(1, -1) translate(-24.894483, -31.540175) " points="7.61584577e-17 40.301335 27.2201617 40.301335 27.3494887 22.7790154 49.7889661 22.7790154"></polyline>
                    <ellipse id="Oval-Copy-2" fill="#00CD9E" cx="51.6002668" cy="5.39148294" rx="5.38906181" ry="5.39148294"></ellipse>
                    <ellipse id="Oval-Copy-4" fill="#00CD9E" cx="51.6002668" cy="39.8969738" rx="5.38906181" ry="5.39148294"></ellipse>
                </g>
            </g>
        </g>
    </g>
</svg>